<svg width="184" height="50" viewBox="0 0 184 50" fill="none" xmlns="http://www.w3.org/2000/svg">
<g clip-path="url(#clip0_331_30)">
<rect x="1" width="3" height="50" fill="white" fill-opacity="0.9"/>
<rect x="6" width="2" height="50" fill="white" fill-opacity="0.9"/>
<rect x="17" width="2" height="50" fill="white" fill-opacity="0.9"/>
<rect x="54" width="5" height="32" fill="white" fill-opacity="0.9"/>
<rect x="83" width="5" height="32" fill="white" fill-opacity="0.9"/>
<rect x="93" width="5" height="32" fill="white" fill-opacity="0.9"/>
<rect x="21" width="1" height="50" fill="white" fill-opacity="0.9"/>
<rect x="75" width="2" height="32" fill="white" fill-opacity="0.9"/>
<rect x="102" width="1" height="32" fill="white" fill-opacity="0.9"/>
<rect x="128" width="2" height="32" fill="white" fill-opacity="0.9"/>
<rect x="131" width="2" height="32" fill="white" fill-opacity="0.9"/>
<rect x="135" width="4" height="32" fill="white" fill-opacity="0.9"/>
<rect x="154" width="2" height="50" fill="white" fill-opacity="0.9"/>
<rect x="163" width="1" height="50" fill="white" fill-opacity="0.9"/>
<rect x="166" width="4" height="50" fill="white" fill-opacity="0.9"/>
<rect x="181" width="1" height="50" fill="white" fill-opacity="0.9"/>
<rect x="173" width="1" height="50" fill="white" fill-opacity="0.9"/>
<rect x="79" width="1" height="32" fill="white" fill-opacity="0.9"/>
<rect x="105" width="2" height="32" fill="white" fill-opacity="0.9"/>
<rect x="116" width="2" height="32" fill="white" fill-opacity="0.9"/>
<rect x="144" width="2" height="32" fill="white" fill-opacity="0.9"/>
<rect x="150" width="3" height="32" fill="white" fill-opacity="0.9"/>
<rect x="158" width="3" height="50" fill="white" fill-opacity="0.9"/>
<rect x="176" width="3" height="50" fill="white" fill-opacity="0.9"/>
<rect x="108" width="4" height="32" fill="white" fill-opacity="0.9"/>
<rect x="120" width="3" height="32" fill="white" fill-opacity="0.9"/>
<rect x="31" width="1" height="50" fill="white" fill-opacity="0.9"/>
<rect x="67" width="2" height="32" fill="white" fill-opacity="0.9"/>
<rect x="34" width="2" height="32" fill="white" fill-opacity="0.9"/>
<rect x="47" width="2" height="32" fill="white" fill-opacity="0.9"/>
<rect x="51" width="1" height="32" fill="white" fill-opacity="0.9"/>
<rect x="41" width="4" height="32" fill="white" fill-opacity="0.9"/>
<rect x="26" width="3" height="50" fill="white" fill-opacity="0.9"/>
<rect x="62" width="3" height="32" fill="white" fill-opacity="0.9"/>
<rect x="9" width="5" height="50" fill="white" fill-opacity="0.9"/>
<rect x="38" width="1" height="32" fill="white" fill-opacity="0.9"/>
<path d="M38.558 49H41.51C41.636 49 41.708 48.946 41.708 48.82C41.708 48.586 40.934 48.082 40.934 47.56V45.31C40.934 45.112 40.988 44.95 41.15 44.842L42.302 44.086C42.824 45.472 43.382 47.002 43.616 47.812C43.67 48.01 43.706 48.118 43.706 48.172C43.706 48.478 43.31 48.586 43.31 48.82C43.31 48.946 43.382 49 43.508 49H46.406C46.532 49 46.604 48.946 46.604 48.82C46.604 48.586 46.19 48.424 45.776 47.794C45.578 47.506 44.714 45.058 44.048 43.042L45.236 42.214C45.542 41.98 45.74 41.728 45.74 41.314V36.904C45.74 35.86 45.164 35.41 44.084 35.41H38.558C38.432 35.41 38.36 35.464 38.36 35.59C38.36 35.824 39.134 36.328 39.134 36.85V47.56C39.134 48.082 38.36 48.586 38.36 48.82C38.36 48.946 38.432 49 38.558 49ZM41.24 36.85H43.382C43.796 36.85 43.94 36.994 43.94 37.408V40.63C43.94 40.936 43.778 41.152 43.382 41.44L41.312 42.79C41.312 42.79 41.15 42.898 41.06 42.898C40.988 42.898 40.934 42.826 40.934 42.7V37.21C40.934 36.994 41.078 36.85 41.24 36.85ZM52.4754 39.01C52.4754 39.172 52.5474 39.262 52.7094 39.262C52.8894 39.262 54.0954 38.398 54.0954 38.398C54.2214 38.308 54.2754 38.182 54.2754 37.876V35.842C54.2754 35.59 54.1134 35.41 53.7174 35.41H47.4174C47.2914 35.41 47.2194 35.464 47.2194 35.59C47.2194 35.824 47.9934 36.328 47.9934 36.85V47.56C47.9934 48.082 47.2194 48.586 47.2194 48.82C47.2194 48.946 47.2914 49 47.4174 49H53.7354C54.1134 49 54.2754 48.82 54.2754 48.496V44.95C54.2754 44.788 54.2034 44.698 54.0414 44.698C53.8614 44.698 52.6554 45.472 52.6554 45.472C52.5294 45.562 52.4754 45.688 52.4754 45.994V47.182C52.4754 47.416 52.2954 47.56 52.1334 47.56H50.0634C49.9014 47.56 49.7934 47.452 49.7934 47.272V44.626L52.2414 43.15C52.4934 42.988 52.6194 42.898 52.6194 42.682V41.242C52.6194 41.116 52.5654 41.008 52.4574 41.008C52.3674 41.008 52.2594 41.08 52.0794 41.188L49.7934 42.574V37.138C49.7934 36.94 49.8834 36.85 50.0454 36.85H52.1694C52.3314 36.85 52.4754 36.994 52.4754 37.21V39.01ZM60.3483 44.95V47.182C60.3483 47.416 60.1683 47.56 60.0063 47.56H57.9003C57.6303 47.56 57.5223 47.434 57.5223 47.164V37.246C57.5223 36.976 57.6303 36.85 57.9003 36.85H60.0063C60.1683 36.85 60.3483 36.994 60.3483 37.228V39.55C60.3483 39.712 60.4203 39.802 60.5823 39.802C60.7623 39.802 61.9683 38.938 61.9683 38.938C62.0943 38.848 62.1483 38.722 62.1483 38.416V36.652C62.1483 36.076 61.6083 35.41 60.6723 35.41H57.1263C56.2803 35.41 55.7223 35.824 55.7223 36.562V47.848C55.7223 48.586 56.2803 49 57.1263 49H60.6723C61.6083 49 62.1483 48.334 62.1483 47.758V42.196C62.1483 42.034 62.0763 41.944 61.9143 41.944C61.7163 41.944 59.7363 42.88 59.7363 42.88C59.4843 43.042 59.3583 43.132 59.3583 43.348V44.788C59.3583 44.914 59.4123 45.022 59.5203 45.022C59.6823 45.022 60.0963 44.752 60.2043 44.752C60.3123 44.752 60.3483 44.824 60.3483 44.95ZM69.9739 36.85C69.9739 36.328 70.7479 35.824 70.7479 35.59C70.7479 35.464 70.6759 35.41 70.5499 35.41H67.5979C67.4719 35.41 67.3999 35.464 67.3999 35.59C67.3999 35.824 68.1739 36.328 68.1739 36.85V47.182C68.1739 47.416 67.9939 47.56 67.8319 47.56H65.7259C65.4559 47.56 65.3479 47.434 65.3479 47.164V36.85C65.3479 36.328 66.1219 35.824 66.1219 35.59C66.1219 35.464 66.0499 35.41 65.9239 35.41H62.9719C62.8459 35.41 62.7739 35.464 62.7739 35.59C62.7739 35.824 63.5479 36.328 63.5479 36.85V47.848C63.5479 48.586 64.1059 49 64.9519 49H68.4979C69.4339 49 69.9739 48.334 69.9739 47.758V36.85ZM74.3237 47.56C74.0537 47.56 73.9457 47.434 73.9457 47.164V36.85C73.9457 36.328 74.7197 35.824 74.7197 35.59C74.7197 35.464 74.6477 35.41 74.5217 35.41H71.5697C71.4437 35.41 71.3717 35.464 71.3717 35.59C71.3717 35.824 72.1457 36.328 72.1457 36.85V47.56C72.1457 48.082 71.3717 48.586 71.3717 48.82C71.3717 48.946 71.4437 49 71.5697 49H77.3477C77.7257 49 77.8877 48.82 77.8877 48.496V44.86C77.8877 44.698 77.8157 44.608 77.6537 44.608C77.4737 44.608 76.2677 45.472 76.2677 45.472C76.1417 45.562 76.0877 45.688 76.0877 45.994V47.182C76.0877 47.416 75.9077 47.56 75.7457 47.56H74.3237ZM81.8497 35.41C81.6517 35.41 81.5977 35.464 81.5977 35.59C81.5977 35.734 82.0657 36.4 82.0657 36.742C82.0657 37.084 79.6177 47.02 79.4737 47.542C79.3297 48.064 78.6097 48.64 78.6097 48.82C78.6097 48.946 78.6817 49 78.8077 49H81.7777C81.9757 49 82.0297 48.946 82.0297 48.82C82.0297 48.748 81.3637 48.082 81.3637 47.524V47.236C81.3637 47.092 81.4537 47.038 81.6157 46.948L84.6757 45.238C84.8557 45.148 84.9817 45.112 85.0357 45.112C85.1257 45.112 85.1617 45.148 85.1977 45.256C85.2517 45.472 85.8277 47.596 85.8277 47.848C85.8277 48.1 85.1437 48.658 85.1437 48.82C85.1437 48.964 85.2877 49 85.4317 49H88.2397C88.4377 49 88.5097 48.964 88.5097 48.82C88.5097 48.658 87.7717 48.118 87.5377 47.2C87.4297 46.786 85.0357 37.21 85.0357 36.742C85.0357 36.4 85.5037 35.734 85.5037 35.59C85.5037 35.464 85.4497 35.41 85.2517 35.41H81.8497ZM84.6757 43.024C84.6757 43.024 84.7117 43.168 84.7117 43.204C84.7117 43.276 84.6757 43.312 84.6037 43.366C84.1717 43.636 82.6597 44.446 82.1557 44.734C82.1197 44.752 82.0837 44.77 82.0657 44.77C82.0297 44.77 82.0117 44.734 82.0117 44.68L83.3977 38.38C83.3977 38.38 83.4337 38.254 83.5237 38.254C83.6317 38.254 83.6677 38.38 83.6677 38.38L84.6757 43.024ZM89.1303 49H92.0823C92.2083 49 92.2803 48.946 92.2803 48.82C92.2803 48.586 91.5063 48.082 91.5063 47.56V45.31C91.5063 45.112 91.5603 44.95 91.7223 44.842L92.8743 44.086C93.3963 45.472 93.9543 47.002 94.1883 47.812C94.2423 48.01 94.2783 48.118 94.2783 48.172C94.2783 48.478 93.8823 48.586 93.8823 48.82C93.8823 48.946 93.9543 49 94.0803 49H96.9783C97.1043 49 97.1763 48.946 97.1763 48.82C97.1763 48.586 96.7623 48.424 96.3483 47.794C96.1503 47.506 95.2863 45.058 94.6203 43.042L95.8083 42.214C96.1143 41.98 96.3123 41.728 96.3123 41.314V36.904C96.3123 35.86 95.7363 35.41 94.6563 35.41H89.1303C89.0043 35.41 88.9323 35.464 88.9323 35.59C88.9323 35.824 89.7063 36.328 89.7063 36.85V47.56C89.7063 48.082 88.9323 48.586 88.9323 48.82C88.9323 48.946 89.0043 49 89.1303 49ZM91.8123 36.85H93.9543C94.3683 36.85 94.5123 36.994 94.5123 37.408V40.63C94.5123 40.936 94.3503 41.152 93.9543 41.44L91.8843 42.79C91.8843 42.79 91.7223 42.898 91.6323 42.898C91.5603 42.898 91.5063 42.826 91.5063 42.7V37.21C91.5063 36.994 91.6503 36.85 91.8123 36.85ZM103.753 35.59C103.231 35.59 102.457 35.41 102.223 35.41C102.097 35.41 102.043 35.482 102.043 35.608V37.876C102.043 38.002 102.097 38.074 102.223 38.074C102.349 38.074 102.457 37.912 102.907 37.39C103.195 37.048 103.645 37.012 104.383 37.012C104.563 37.012 104.689 37.156 104.689 37.318V47.56C104.689 48.082 103.915 48.586 103.915 48.82C103.915 48.946 103.987 49 104.113 49H107.065C107.191 49 107.263 48.946 107.263 48.82C107.263 48.586 106.489 48.082 106.489 47.56V37.318C106.489 37.156 106.615 37.012 106.795 37.012C107.533 37.012 107.983 37.048 108.271 37.39C108.721 37.912 108.829 38.074 108.955 38.074C109.081 38.074 109.135 38.002 109.135 37.876V35.608C109.135 35.482 109.081 35.41 108.955 35.41C108.721 35.41 107.947 35.59 107.425 35.59H103.753ZM112.426 36.85C112.426 36.328 113.2 35.824 113.2 35.59C113.2 35.464 113.128 35.41 113.002 35.41H110.05C109.924 35.41 109.852 35.464 109.852 35.59C109.852 35.824 110.626 36.328 110.626 36.85V47.56C110.626 48.082 109.852 48.586 109.852 48.82C109.852 48.946 109.924 49 110.05 49H113.002C113.128 49 113.2 48.946 113.2 48.82C113.2 48.586 112.426 48.082 112.426 47.56V36.85ZM119.182 39.55C119.182 39.712 119.254 39.802 119.416 39.802C119.596 39.802 120.802 38.938 120.802 38.938C120.928 38.848 120.982 38.722 120.982 38.416V36.652C120.982 36.076 120.442 35.41 119.506 35.41H115.96C115.114 35.41 114.556 35.824 114.556 36.562V47.848C114.556 48.586 115.114 49 115.96 49H119.506C120.442 49 120.982 48.334 120.982 47.758V44.32C120.982 44.158 120.91 44.068 120.748 44.068C120.568 44.068 119.362 44.932 119.362 44.932C119.236 45.022 119.182 45.148 119.182 45.454V47.182C119.182 47.416 119.002 47.56 118.84 47.56H116.734C116.464 47.56 116.356 47.434 116.356 47.164V37.246C116.356 36.976 116.464 36.85 116.734 36.85H118.84C119.002 36.85 119.182 36.994 119.182 37.228V39.55ZM126.698 41.872C126.644 41.764 126.608 41.674 126.608 41.584C126.608 41.494 126.716 41.314 126.716 41.314L129.434 36.616C129.812 35.968 130.388 35.824 130.388 35.59C130.388 35.464 130.316 35.41 130.19 35.41H127.292C127.166 35.41 127.094 35.464 127.094 35.59C127.094 35.824 127.49 35.932 127.49 36.238C127.49 36.418 127.4 36.58 127.202 36.922L124.628 41.422C124.61 41.458 124.574 41.494 124.538 41.494C124.484 41.494 124.448 41.458 124.448 41.386V36.85C124.448 36.328 125.222 35.824 125.222 35.59C125.222 35.464 125.15 35.41 125.024 35.41H122.072C121.946 35.41 121.874 35.464 121.874 35.59C121.874 35.824 122.648 36.328 122.648 36.85V47.56C122.648 48.082 121.874 48.586 121.874 48.82C121.874 48.946 121.946 49 122.072 49H125.024C125.15 49 125.222 48.946 125.222 48.82C125.222 48.586 124.448 48.082 124.448 47.56V45.31C124.448 45.094 124.448 45.004 124.574 44.806L125.294 43.654C125.348 43.564 125.366 43.546 125.402 43.546C125.438 43.546 125.456 43.564 125.51 43.654L127.724 47.812C127.814 47.992 127.85 48.118 127.85 48.172C127.85 48.478 127.454 48.586 127.454 48.82C127.454 48.946 127.526 49 127.652 49H130.55C130.676 49 130.748 48.946 130.748 48.82C130.748 48.586 130.208 48.424 129.794 47.794L126.698 41.872ZM136.552 39.01C136.552 39.172 136.624 39.262 136.786 39.262C136.966 39.262 138.172 38.398 138.172 38.398C138.298 38.308 138.352 38.182 138.352 37.876V35.842C138.352 35.59 138.19 35.41 137.794 35.41H131.494C131.368 35.41 131.296 35.464 131.296 35.59C131.296 35.824 132.07 36.328 132.07 36.85V47.56C132.07 48.082 131.296 48.586 131.296 48.82C131.296 48.946 131.368 49 131.494 49H137.812C138.19 49 138.352 48.82 138.352 48.496V44.95C138.352 44.788 138.28 44.698 138.118 44.698C137.938 44.698 136.732 45.472 136.732 45.472C136.606 45.562 136.552 45.688 136.552 45.994V47.182C136.552 47.416 136.372 47.56 136.21 47.56H134.14C133.978 47.56 133.87 47.452 133.87 47.272V44.626L136.318 43.15C136.57 42.988 136.696 42.898 136.696 42.682V41.242C136.696 41.116 136.642 41.008 136.534 41.008C136.444 41.008 136.336 41.08 136.156 41.188L133.87 42.574V37.138C133.87 36.94 133.96 36.85 134.122 36.85H136.246C136.408 36.85 136.552 36.994 136.552 37.21V39.01ZM140.878 35.59C140.356 35.59 139.582 35.41 139.348 35.41C139.222 35.41 139.168 35.482 139.168 35.608V37.876C139.168 38.002 139.222 38.074 139.348 38.074C139.474 38.074 139.582 37.912 140.032 37.39C140.32 37.048 140.77 37.012 141.508 37.012C141.688 37.012 141.814 37.156 141.814 37.318V47.56C141.814 48.082 141.04 48.586 141.04 48.82C141.04 48.946 141.112 49 141.238 49H144.19C144.316 49 144.388 48.946 144.388 48.82C144.388 48.586 143.614 48.082 143.614 47.56V37.318C143.614 37.156 143.74 37.012 143.92 37.012C144.658 37.012 145.108 37.048 145.396 37.39C145.846 37.912 145.954 38.074 146.08 38.074C146.206 38.074 146.26 38.002 146.26 37.876V35.608C146.26 35.482 146.206 35.41 146.08 35.41C145.846 35.41 145.072 35.59 144.55 35.59H140.878Z" fill="white"/>
</g>
<defs>
<clipPath id="clip0_331_30">
<rect width="184" height="50" fill="white"/>
</clipPath>
</defs>
</svg>
