<svg width="184" height="50" viewBox="0 0 184 50" fill="none" xmlns="http://www.w3.org/2000/svg">
<g clip-path="url(#clip0_359_147)">
<rect x="1" width="3" height="50" fill="#E19F54"/>
<rect x="6" width="2" height="50" fill="#E19F54"/>
<rect x="17" width="2" height="50" fill="#E19F54"/>
<rect x="54" width="5" height="32" fill="#E19F54"/>
<rect x="83" width="5" height="32" fill="#E19F54"/>
<rect x="93" width="5" height="32" fill="#E19F54"/>
<rect x="21" width="1" height="50" fill="#E19F54"/>
<rect x="75" width="2" height="32" fill="#E19F54"/>
<rect x="102" width="1" height="32" fill="#E19F54"/>
<rect x="128" width="2" height="32" fill="#E19F54"/>
<rect x="131" width="2" height="32" fill="#E19F54"/>
<rect x="135" width="4" height="32" fill="#E19F54"/>
<rect x="154" width="2" height="50" fill="#E19F54"/>
<rect x="163" width="1" height="50" fill="#E19F54"/>
<rect x="166" width="4" height="50" fill="#E19F54"/>
<rect x="181" width="1" height="50" fill="#E19F54"/>
<rect x="173" width="1" height="50" fill="#E19F54"/>
<rect x="79" width="1" height="32" fill="#E19F54"/>
<rect x="105" width="2" height="32" fill="#E19F54"/>
<rect x="116" width="2" height="32" fill="#E19F54"/>
<rect x="144" width="2" height="32" fill="#E19F54"/>
<rect x="150" width="3" height="32" fill="#E19F54"/>
<rect x="158" width="3" height="50" fill="#E19F54"/>
<rect x="176" width="3" height="50" fill="#E19F54"/>
<rect x="108" width="4" height="32" fill="#E19F54"/>
<rect x="120" width="3" height="32" fill="#E19F54"/>
<rect x="31" width="1" height="50" fill="#E19F54"/>
<rect x="67" width="2" height="32" fill="#E19F54"/>
<rect x="34" width="2" height="32" fill="#E19F54"/>
<rect x="47" width="2" height="32" fill="#E19F54"/>
<rect x="51" width="1" height="32" fill="#E19F54"/>
<rect x="41" width="4" height="32" fill="#E19F54"/>
<rect x="26" width="3" height="50" fill="#E19F54"/>
<rect x="62" width="3" height="32" fill="#E19F54"/>
<rect x="9" width="5" height="50" fill="#E19F54"/>
<rect x="38" width="1" height="32" fill="#E19F54"/>
<path d="M36.558 49H39.51C39.636 49 39.708 48.946 39.708 48.82C39.708 48.586 38.934 48.082 38.934 47.56V45.67C38.934 45.472 38.988 45.31 39.15 45.202L42.93 42.664C43.236 42.43 43.56 42.088 43.56 41.674V36.904C43.56 35.86 42.984 35.41 41.904 35.41H36.558C36.432 35.41 36.36 35.464 36.36 35.59C36.36 35.824 37.134 36.328 37.134 36.85V47.56C37.134 48.082 36.36 48.586 36.36 48.82C36.36 48.946 36.432 49 36.558 49ZM39.24 36.85H41.202C41.616 36.85 41.76 36.994 41.76 37.408V41.08C41.76 41.386 41.598 41.602 41.202 41.89L39.366 43.114C39.24 43.204 39.15 43.258 39.06 43.258C38.988 43.258 38.934 43.186 38.934 43.078V37.21C38.934 36.994 39.078 36.85 39.24 36.85ZM44.4857 49H47.4377C47.5637 49 47.6357 48.946 47.6357 48.82C47.6357 48.586 46.8617 48.082 46.8617 47.56V45.31C46.8617 45.112 46.9157 44.95 47.0777 44.842L48.2297 44.086C48.7517 45.472 49.3097 47.002 49.5437 47.812C49.5977 48.01 49.6337 48.118 49.6337 48.172C49.6337 48.478 49.2377 48.586 49.2377 48.82C49.2377 48.946 49.3097 49 49.4357 49H52.3337C52.4597 49 52.5317 48.946 52.5317 48.82C52.5317 48.586 52.1177 48.424 51.7037 47.794C51.5057 47.506 50.6417 45.058 49.9757 43.042L51.1637 42.214C51.4697 41.98 51.6677 41.728 51.6677 41.314V36.904C51.6677 35.86 51.0917 35.41 50.0117 35.41H44.4857C44.3597 35.41 44.2877 35.464 44.2877 35.59C44.2877 35.824 45.0617 36.328 45.0617 36.85V47.56C45.0617 48.082 44.2877 48.586 44.2877 48.82C44.2877 48.946 44.3597 49 44.4857 49ZM47.1677 36.85H49.3097C49.7237 36.85 49.8677 36.994 49.8677 37.408V40.63C49.8677 40.936 49.7057 41.152 49.3097 41.44L47.2397 42.79C47.2397 42.79 47.0777 42.898 46.9877 42.898C46.9157 42.898 46.8617 42.826 46.8617 42.7V37.21C46.8617 36.994 47.0057 36.85 47.1677 36.85ZM58.4031 39.01C58.4031 39.172 58.4751 39.262 58.6371 39.262C58.8171 39.262 60.0231 38.398 60.0231 38.398C60.1491 38.308 60.2031 38.182 60.2031 37.876V35.842C60.2031 35.59 60.0411 35.41 59.6451 35.41H53.3451C53.2191 35.41 53.1471 35.464 53.1471 35.59C53.1471 35.824 53.9211 36.328 53.9211 36.85V47.56C53.9211 48.082 53.1471 48.586 53.1471 48.82C53.1471 48.946 53.2191 49 53.3451 49H59.6631C60.0411 49 60.2031 48.82 60.2031 48.496V44.95C60.2031 44.788 60.1311 44.698 59.9691 44.698C59.7891 44.698 58.5831 45.472 58.5831 45.472C58.4571 45.562 58.4031 45.688 58.4031 45.994V47.182C58.4031 47.416 58.2231 47.56 58.0611 47.56H55.9911C55.8291 47.56 55.7211 47.452 55.7211 47.272V44.626L58.1691 43.15C58.4211 42.988 58.5471 42.898 58.5471 42.682V41.242C58.5471 41.116 58.4931 41.008 58.3851 41.008C58.2951 41.008 58.1871 41.08 58.0071 41.188L55.7211 42.574V37.138C55.7211 36.94 55.8111 36.85 55.9731 36.85H58.0971C58.2591 36.85 58.4031 36.994 58.4031 37.21V39.01ZM67.05 45.238C66.996 45.238 66.96 45.13 66.96 45.13C66.96 45.13 64.422 36.922 64.134 35.95C64.026 35.554 63.81 35.41 63.54 35.41H61.308C61.182 35.41 61.11 35.464 61.11 35.59C61.11 35.824 61.884 36.328 61.884 36.85V47.56C61.884 48.082 61.11 48.586 61.11 48.82C61.11 48.946 61.182 49 61.308 49H64.17C64.296 49 64.368 48.946 64.368 48.82C64.368 48.586 63.594 48.082 63.594 47.56V40.756C63.594 40.612 63.612 40.504 63.702 40.504C63.792 40.504 63.828 40.558 63.864 40.684L65.97 47.56C66.006 47.65 66.006 47.722 66.006 47.812C66.006 48.226 65.736 48.622 65.736 48.82C65.736 48.946 65.808 49 65.934 49H68.166C68.292 49 68.364 48.946 68.364 48.82C68.364 48.622 68.094 48.226 68.094 47.812C68.094 47.722 68.094 47.65 68.13 47.56L70.218 40.72C70.272 40.576 70.308 40.504 70.398 40.504C70.488 40.504 70.506 40.612 70.506 40.756V47.56C70.506 48.082 69.732 48.586 69.732 48.82C69.732 48.946 69.804 49 69.93 49H72.792C72.918 49 72.99 48.946 72.99 48.82C72.99 48.586 72.216 48.082 72.216 47.56V36.85C72.216 36.328 72.99 35.824 72.99 35.59C72.99 35.464 72.918 35.41 72.792 35.41H70.56C70.29 35.41 70.074 35.554 69.966 35.95C69.678 36.922 67.14 45.13 67.14 45.13C67.14 45.13 67.104 45.238 67.05 45.238ZM76.3775 36.85C76.3775 36.328 77.1515 35.824 77.1515 35.59C77.1515 35.464 77.0795 35.41 76.9535 35.41H74.0015C73.8755 35.41 73.8035 35.464 73.8035 35.59C73.8035 35.824 74.5775 36.328 74.5775 36.85V47.56C74.5775 48.082 73.8035 48.586 73.8035 48.82C73.8035 48.946 73.8755 49 74.0015 49H76.9535C77.0795 49 77.1515 48.946 77.1515 48.82C77.1515 48.586 76.3775 48.082 76.3775 47.56V36.85ZM85.0774 36.85C85.0774 36.328 85.8514 35.824 85.8514 35.59C85.8514 35.464 85.7794 35.41 85.6534 35.41H82.7014C82.5754 35.41 82.5034 35.464 82.5034 35.59C82.5034 35.824 83.2774 36.328 83.2774 36.85V47.182C83.2774 47.416 83.0974 47.56 82.9354 47.56H80.8294C80.5594 47.56 80.4514 47.434 80.4514 47.164V36.85C80.4514 36.328 81.2254 35.824 81.2254 35.59C81.2254 35.464 81.1534 35.41 81.0274 35.41H78.0754C77.9494 35.41 77.8774 35.464 77.8774 35.59C77.8774 35.824 78.6514 36.328 78.6514 36.85V47.848C78.6514 48.586 79.2094 49 80.0554 49H83.6014C84.5374 49 85.0774 48.334 85.0774 47.758V36.85ZM92.4152 45.238C92.3612 45.238 92.3252 45.13 92.3252 45.13C92.3252 45.13 89.7872 36.922 89.4992 35.95C89.3912 35.554 89.1752 35.41 88.9052 35.41H86.6732C86.5472 35.41 86.4752 35.464 86.4752 35.59C86.4752 35.824 87.2492 36.328 87.2492 36.85V47.56C87.2492 48.082 86.4752 48.586 86.4752 48.82C86.4752 48.946 86.5472 49 86.6732 49H89.5352C89.6612 49 89.7332 48.946 89.7332 48.82C89.7332 48.586 88.9592 48.082 88.9592 47.56V40.756C88.9592 40.612 88.9772 40.504 89.0672 40.504C89.1572 40.504 89.1932 40.558 89.2292 40.684L91.3352 47.56C91.3712 47.65 91.3712 47.722 91.3712 47.812C91.3712 48.226 91.1012 48.622 91.1012 48.82C91.1012 48.946 91.1732 49 91.2992 49H93.5312C93.6572 49 93.7292 48.946 93.7292 48.82C93.7292 48.622 93.4592 48.226 93.4592 47.812C93.4592 47.722 93.4592 47.65 93.4952 47.56L95.5832 40.72C95.6372 40.576 95.6732 40.504 95.7632 40.504C95.8532 40.504 95.8712 40.612 95.8712 40.756V47.56C95.8712 48.082 95.0972 48.586 95.0972 48.82C95.0972 48.946 95.1692 49 95.2952 49H98.1572C98.2832 49 98.3552 48.946 98.3552 48.82C98.3552 48.586 97.5812 48.082 97.5812 47.56V36.85C97.5812 36.328 98.3552 35.824 98.3552 35.59C98.3552 35.464 98.2832 35.41 98.1572 35.41H95.9252C95.6552 35.41 95.4392 35.554 95.3312 35.95C95.0432 36.922 92.5052 45.13 92.5052 45.13C92.5052 45.13 92.4692 45.238 92.4152 45.238ZM105.041 35.59C104.519 35.59 103.745 35.41 103.511 35.41C103.385 35.41 103.331 35.482 103.331 35.608V37.876C103.331 38.002 103.385 38.074 103.511 38.074C103.637 38.074 103.745 37.912 104.195 37.39C104.483 37.048 104.933 37.012 105.671 37.012C105.851 37.012 105.977 37.156 105.977 37.318V47.56C105.977 48.082 105.203 48.586 105.203 48.82C105.203 48.946 105.275 49 105.401 49H108.353C108.479 49 108.551 48.946 108.551 48.82C108.551 48.586 107.777 48.082 107.777 47.56V37.318C107.777 37.156 107.903 37.012 108.083 37.012C108.821 37.012 109.271 37.048 109.559 37.39C110.009 37.912 110.117 38.074 110.243 38.074C110.369 38.074 110.423 38.002 110.423 37.876V35.608C110.423 35.482 110.369 35.41 110.243 35.41C110.009 35.41 109.235 35.59 108.713 35.59H105.041ZM113.713 36.85C113.713 36.328 114.487 35.824 114.487 35.59C114.487 35.464 114.415 35.41 114.289 35.41H111.337C111.211 35.41 111.139 35.464 111.139 35.59C111.139 35.824 111.913 36.328 111.913 36.85V47.56C111.913 48.082 111.139 48.586 111.139 48.82C111.139 48.946 111.211 49 111.337 49H114.289C114.415 49 114.487 48.946 114.487 48.82C114.487 48.586 113.713 48.082 113.713 47.56V36.85ZM120.469 39.55C120.469 39.712 120.541 39.802 120.703 39.802C120.883 39.802 122.089 38.938 122.089 38.938C122.215 38.848 122.269 38.722 122.269 38.416V36.652C122.269 36.076 121.729 35.41 120.793 35.41H117.247C116.401 35.41 115.843 35.824 115.843 36.562V47.848C115.843 48.586 116.401 49 117.247 49H120.793C121.729 49 122.269 48.334 122.269 47.758V44.32C122.269 44.158 122.197 44.068 122.035 44.068C121.855 44.068 120.649 44.932 120.649 44.932C120.523 45.022 120.469 45.148 120.469 45.454V47.182C120.469 47.416 120.289 47.56 120.127 47.56H118.021C117.751 47.56 117.643 47.434 117.643 47.164V37.246C117.643 36.976 117.751 36.85 118.021 36.85H120.127C120.289 36.85 120.469 36.994 120.469 37.228V39.55ZM127.985 41.872C127.931 41.764 127.895 41.674 127.895 41.584C127.895 41.494 128.003 41.314 128.003 41.314L130.721 36.616C131.099 35.968 131.675 35.824 131.675 35.59C131.675 35.464 131.603 35.41 131.477 35.41H128.579C128.453 35.41 128.381 35.464 128.381 35.59C128.381 35.824 128.777 35.932 128.777 36.238C128.777 36.418 128.687 36.58 128.489 36.922L125.915 41.422C125.897 41.458 125.861 41.494 125.825 41.494C125.771 41.494 125.735 41.458 125.735 41.386V36.85C125.735 36.328 126.509 35.824 126.509 35.59C126.509 35.464 126.437 35.41 126.311 35.41H123.359C123.233 35.41 123.161 35.464 123.161 35.59C123.161 35.824 123.935 36.328 123.935 36.85V47.56C123.935 48.082 123.161 48.586 123.161 48.82C123.161 48.946 123.233 49 123.359 49H126.311C126.437 49 126.509 48.946 126.509 48.82C126.509 48.586 125.735 48.082 125.735 47.56V45.31C125.735 45.094 125.735 45.004 125.861 44.806L126.581 43.654C126.635 43.564 126.653 43.546 126.689 43.546C126.725 43.546 126.743 43.564 126.797 43.654L129.011 47.812C129.101 47.992 129.137 48.118 129.137 48.172C129.137 48.478 128.741 48.586 128.741 48.82C128.741 48.946 128.813 49 128.939 49H131.837C131.963 49 132.035 48.946 132.035 48.82C132.035 48.586 131.495 48.424 131.081 47.794L127.985 41.872ZM137.839 39.01C137.839 39.172 137.911 39.262 138.073 39.262C138.253 39.262 139.459 38.398 139.459 38.398C139.585 38.308 139.639 38.182 139.639 37.876V35.842C139.639 35.59 139.477 35.41 139.081 35.41H132.781C132.655 35.41 132.583 35.464 132.583 35.59C132.583 35.824 133.357 36.328 133.357 36.85V47.56C133.357 48.082 132.583 48.586 132.583 48.82C132.583 48.946 132.655 49 132.781 49H139.099C139.477 49 139.639 48.82 139.639 48.496V44.95C139.639 44.788 139.567 44.698 139.405 44.698C139.225 44.698 138.019 45.472 138.019 45.472C137.893 45.562 137.839 45.688 137.839 45.994V47.182C137.839 47.416 137.659 47.56 137.497 47.56H135.427C135.265 47.56 135.157 47.452 135.157 47.272V44.626L137.605 43.15C137.857 42.988 137.983 42.898 137.983 42.682V41.242C137.983 41.116 137.929 41.008 137.821 41.008C137.731 41.008 137.623 41.08 137.443 41.188L135.157 42.574V37.138C135.157 36.94 135.247 36.85 135.409 36.85H137.533C137.695 36.85 137.839 36.994 137.839 37.21V39.01ZM142.166 35.59C141.644 35.59 140.87 35.41 140.636 35.41C140.51 35.41 140.456 35.482 140.456 35.608V37.876C140.456 38.002 140.51 38.074 140.636 38.074C140.762 38.074 140.87 37.912 141.32 37.39C141.608 37.048 142.058 37.012 142.796 37.012C142.976 37.012 143.102 37.156 143.102 37.318V47.56C143.102 48.082 142.328 48.586 142.328 48.82C142.328 48.946 142.4 49 142.526 49H145.478C145.604 49 145.676 48.946 145.676 48.82C145.676 48.586 144.902 48.082 144.902 47.56V37.318C144.902 37.156 145.028 37.012 145.208 37.012C145.946 37.012 146.396 37.048 146.684 37.39C147.134 37.912 147.242 38.074 147.368 38.074C147.494 38.074 147.548 38.002 147.548 37.876V35.608C147.548 35.482 147.494 35.41 147.368 35.41C147.134 35.41 146.36 35.59 145.838 35.59H142.166Z" fill="#E19F54"/>
</g>
<defs>
<clipPath id="clip0_359_147">
<rect width="184" height="50" fill="white"/>
</clipPath>
</defs>
</svg>
