<svg width="184" height="50" viewBox="0 0 184 50" fill="none" xmlns="http://www.w3.org/2000/svg">
<g clip-path="url(#clip0_331_30)">
<rect x="1" width="3" height="50" fill="white" fill-opacity="0.9"/>
<rect x="6" width="2" height="50" fill="white" fill-opacity="0.9"/>
<rect x="17" width="2" height="50" fill="white" fill-opacity="0.9"/>
<rect x="54" width="5" height="32" fill="white" fill-opacity="0.9"/>
<rect x="83" width="5" height="32" fill="white" fill-opacity="0.9"/>
<rect x="93" width="5" height="32" fill="white" fill-opacity="0.9"/>
<rect x="21" width="1" height="50" fill="white" fill-opacity="0.9"/>
<rect x="75" width="2" height="32" fill="white" fill-opacity="0.9"/>
<rect x="102" width="1" height="32" fill="white" fill-opacity="0.9"/>
<rect x="128" width="2" height="32" fill="white" fill-opacity="0.9"/>
<rect x="131" width="2" height="32" fill="white" fill-opacity="0.9"/>
<rect x="135" width="4" height="32" fill="white" fill-opacity="0.9"/>
<rect x="154" width="2" height="50" fill="white" fill-opacity="0.9"/>
<rect x="163" width="1" height="50" fill="white" fill-opacity="0.9"/>
<rect x="166" width="4" height="50" fill="white" fill-opacity="0.9"/>
<rect x="181" width="1" height="50" fill="white" fill-opacity="0.9"/>
<rect x="173" width="1" height="50" fill="white" fill-opacity="0.9"/>
<rect x="79" width="1" height="32" fill="white" fill-opacity="0.9"/>
<rect x="105" width="2" height="32" fill="white" fill-opacity="0.9"/>
<rect x="116" width="2" height="32" fill="white" fill-opacity="0.9"/>
<rect x="144" width="2" height="32" fill="white" fill-opacity="0.9"/>
<rect x="150" width="3" height="32" fill="white" fill-opacity="0.9"/>
<rect x="158" width="3" height="50" fill="white" fill-opacity="0.9"/>
<rect x="176" width="3" height="50" fill="white" fill-opacity="0.9"/>
<rect x="108" width="4" height="32" fill="white" fill-opacity="0.9"/>
<rect x="120" width="3" height="32" fill="white" fill-opacity="0.9"/>
<rect x="31" width="1" height="50" fill="white" fill-opacity="0.9"/>
<rect x="67" width="2" height="32" fill="white" fill-opacity="0.9"/>
<rect x="34" width="2" height="32" fill="white" fill-opacity="0.9"/>
<rect x="47" width="2" height="32" fill="white" fill-opacity="0.9"/>
<rect x="51" width="1" height="32" fill="white" fill-opacity="0.9"/>
<rect x="41" width="4" height="32" fill="white" fill-opacity="0.9"/>
<rect x="26" width="3" height="50" fill="white" fill-opacity="0.9"/>
<rect x="62" width="3" height="32" fill="white" fill-opacity="0.9"/>
<rect x="9" width="5" height="50" fill="white" fill-opacity="0.9"/>
<rect x="38" width="1" height="32" fill="white" fill-opacity="0.9"/>
<path d="M48.134 47.56C48.134 48.082 47.36 48.586 47.36 48.82C47.36 48.946 47.432 49 47.558 49H53.624C54.47 49 55.028 48.586 55.028 47.848V42.844C55.028 42.25 53.912 41.62 53.606 41.44C53.534 41.386 53.498 41.35 53.498 41.296C53.498 41.242 53.534 41.206 53.624 41.134C53.912 40.9 54.56 40.45 54.56 39.874V36.904C54.56 35.86 53.984 35.41 52.904 35.41H47.558C47.432 35.41 47.36 35.464 47.36 35.59C47.36 35.824 48.134 36.328 48.134 36.85V47.56ZM49.934 47.272V44.05C49.934 43.87 49.988 43.708 50.204 43.546L51.338 42.718C51.554 42.556 51.716 42.466 51.824 42.466C51.914 42.466 52.04 42.556 52.184 42.682L52.94 43.294C53.12 43.438 53.228 43.546 53.228 43.69V46.984C53.228 47.362 53.048 47.56 52.67 47.56H50.204C50.042 47.56 49.934 47.452 49.934 47.272ZM50.24 36.85H52.202C52.616 36.85 52.76 36.994 52.76 37.408V39.37C52.76 39.676 52.598 39.892 52.202 40.18C51.806 40.468 50.276 41.62 50.114 41.62C49.988 41.62 49.934 41.566 49.934 41.44V37.21C49.934 36.994 50.078 36.85 50.24 36.85ZM58.8048 35.41C58.6068 35.41 58.5528 35.464 58.5528 35.59C58.5528 35.734 59.0208 36.4 59.0208 36.742C59.0208 37.084 56.5728 47.02 56.4288 47.542C56.2848 48.064 55.5648 48.64 55.5648 48.82C55.5648 48.946 55.6368 49 55.7628 49H58.7328C58.9308 49 58.9848 48.946 58.9848 48.82C58.9848 48.748 58.3188 48.082 58.3188 47.524V47.236C58.3188 47.092 58.4088 47.038 58.5708 46.948L61.6308 45.238C61.8108 45.148 61.9368 45.112 61.9908 45.112C62.0808 45.112 62.1168 45.148 62.1528 45.256C62.2068 45.472 62.7828 47.596 62.7828 47.848C62.7828 48.1 62.0988 48.658 62.0988 48.82C62.0988 48.964 62.2428 49 62.3868 49H65.1948C65.3928 49 65.4648 48.964 65.4648 48.82C65.4648 48.658 64.7268 48.118 64.4928 47.2C64.3848 46.786 61.9908 37.21 61.9908 36.742C61.9908 36.4 62.4588 35.734 62.4588 35.59C62.4588 35.464 62.4048 35.41 62.2068 35.41H58.8048ZM61.6308 43.024C61.6308 43.024 61.6668 43.168 61.6668 43.204C61.6668 43.276 61.6308 43.312 61.5588 43.366C61.1268 43.636 59.6148 44.446 59.1108 44.734C59.0748 44.752 59.0388 44.77 59.0208 44.77C58.9848 44.77 58.9668 44.734 58.9668 44.68L60.3528 38.38C60.3528 38.38 60.3888 38.254 60.4788 38.254C60.5868 38.254 60.6228 38.38 60.6228 38.38L61.6308 43.024ZM67.6037 37.246C67.6037 36.976 67.7117 36.85 67.9817 36.85H69.7277C69.9257 36.85 70.0697 36.994 70.0697 37.228V38.416C70.0697 38.722 70.1237 38.848 70.2497 38.938C70.2497 38.938 71.4557 39.802 71.6357 39.802C71.7977 39.802 71.8697 39.712 71.8697 39.55V36.652C71.8697 36.076 71.3297 35.41 70.3937 35.41H67.2077C66.3617 35.41 65.8037 35.824 65.8037 36.562V40.288C65.8037 40.954 66.1277 41.26 66.6497 41.638L69.6197 43.78C69.9437 44.014 70.0697 44.284 70.0697 44.608V47.164C70.0697 47.434 69.9617 47.56 69.6917 47.56H67.9457C67.7837 47.56 67.6037 47.416 67.6037 47.182V45.454C67.6037 45.148 67.5497 45.022 67.4237 44.932C67.4237 44.932 66.2177 44.068 66.0377 44.068C65.8757 44.068 65.8037 44.158 65.8037 44.32V47.758C65.8037 48.334 66.3437 49 67.2797 49H70.4657C71.3117 49 71.8697 48.586 71.8697 47.848V43.888C71.8697 43.222 71.6357 42.916 71.0777 42.52L68.0717 40.36C67.6937 40.072 67.6037 39.82 67.6037 39.478V37.246ZM75.442 36.85C75.442 36.328 76.216 35.824 76.216 35.59C76.216 35.464 76.144 35.41 76.018 35.41H73.066C72.94 35.41 72.868 35.464 72.868 35.59C72.868 35.824 73.642 36.328 73.642 36.85V47.56C73.642 48.082 72.868 48.586 72.868 48.82C72.868 48.946 72.94 49 73.066 49H76.018C76.144 49 76.216 48.946 76.216 48.82C76.216 48.586 75.442 48.082 75.442 47.56V36.85ZM82.1979 39.55C82.1979 39.712 82.2699 39.802 82.4319 39.802C82.6119 39.802 83.8179 38.938 83.8179 38.938C83.9439 38.848 83.9979 38.722 83.9979 38.416V36.652C83.9979 36.076 83.4579 35.41 82.5219 35.41H78.9759C78.1299 35.41 77.5719 35.824 77.5719 36.562V47.848C77.5719 48.586 78.1299 49 78.9759 49H82.5219C83.4579 49 83.9979 48.334 83.9979 47.758V44.32C83.9979 44.158 83.9259 44.068 83.7639 44.068C83.5839 44.068 82.3779 44.932 82.3779 44.932C82.2519 45.022 82.1979 45.148 82.1979 45.454V47.182C82.1979 47.416 82.0179 47.56 81.8559 47.56H79.7499C79.4799 47.56 79.3719 47.434 79.3719 47.164V37.246C79.3719 36.976 79.4799 36.85 79.7499 36.85H81.8559C82.0179 36.85 82.1979 36.994 82.1979 37.228V39.55ZM90.8511 35.59C90.3291 35.59 89.5551 35.41 89.3211 35.41C89.1951 35.41 89.1411 35.482 89.1411 35.608V37.876C89.1411 38.002 89.1951 38.074 89.3211 38.074C89.4471 38.074 89.5551 37.912 90.0051 37.39C90.2931 37.048 90.7431 37.012 91.4811 37.012C91.6611 37.012 91.7871 37.156 91.7871 37.318V47.56C91.7871 48.082 91.0131 48.586 91.0131 48.82C91.0131 48.946 91.0851 49 91.2111 49H94.1631C94.2891 49 94.3611 48.946 94.3611 48.82C94.3611 48.586 93.5871 48.082 93.5871 47.56V37.318C93.5871 37.156 93.7131 37.012 93.8931 37.012C94.6311 37.012 95.0811 37.048 95.3691 37.39C95.8191 37.912 95.9271 38.074 96.0531 38.074C96.1791 38.074 96.2331 38.002 96.2331 37.876V35.608C96.2331 35.482 96.1791 35.41 96.0531 35.41C95.8191 35.41 95.0451 35.59 94.5231 35.59H90.8511ZM99.524 36.85C99.524 36.328 100.298 35.824 100.298 35.59C100.298 35.464 100.226 35.41 100.1 35.41H97.148C97.022 35.41 96.95 35.464 96.95 35.59C96.95 35.824 97.724 36.328 97.724 36.85V47.56C97.724 48.082 96.95 48.586 96.95 48.82C96.95 48.946 97.022 49 97.148 49H100.1C100.226 49 100.298 48.946 100.298 48.82C100.298 48.586 99.524 48.082 99.524 47.56V36.85ZM106.28 39.55C106.28 39.712 106.352 39.802 106.514 39.802C106.694 39.802 107.9 38.938 107.9 38.938C108.026 38.848 108.08 38.722 108.08 38.416V36.652C108.08 36.076 107.54 35.41 106.604 35.41H103.058C102.212 35.41 101.654 35.824 101.654 36.562V47.848C101.654 48.586 102.212 49 103.058 49H106.604C107.54 49 108.08 48.334 108.08 47.758V44.32C108.08 44.158 108.008 44.068 107.846 44.068C107.666 44.068 106.46 44.932 106.46 44.932C106.334 45.022 106.28 45.148 106.28 45.454V47.182C106.28 47.416 106.1 47.56 105.938 47.56H103.832C103.562 47.56 103.454 47.434 103.454 47.164V37.246C103.454 36.976 103.562 36.85 103.832 36.85H105.938C106.1 36.85 106.28 36.994 106.28 37.228V39.55ZM113.795 41.872C113.741 41.764 113.705 41.674 113.705 41.584C113.705 41.494 113.813 41.314 113.813 41.314L116.531 36.616C116.909 35.968 117.485 35.824 117.485 35.59C117.485 35.464 117.413 35.41 117.287 35.41H114.389C114.263 35.41 114.191 35.464 114.191 35.59C114.191 35.824 114.587 35.932 114.587 36.238C114.587 36.418 114.497 36.58 114.299 36.922L111.725 41.422C111.707 41.458 111.671 41.494 111.635 41.494C111.581 41.494 111.545 41.458 111.545 41.386V36.85C111.545 36.328 112.319 35.824 112.319 35.59C112.319 35.464 112.247 35.41 112.121 35.41H109.169C109.043 35.41 108.971 35.464 108.971 35.59C108.971 35.824 109.745 36.328 109.745 36.85V47.56C109.745 48.082 108.971 48.586 108.971 48.82C108.971 48.946 109.043 49 109.169 49H112.121C112.247 49 112.319 48.946 112.319 48.82C112.319 48.586 111.545 48.082 111.545 47.56V45.31C111.545 45.094 111.545 45.004 111.671 44.806L112.391 43.654C112.445 43.564 112.463 43.546 112.499 43.546C112.535 43.546 112.553 43.564 112.607 43.654L114.821 47.812C114.911 47.992 114.947 48.118 114.947 48.172C114.947 48.478 114.551 48.586 114.551 48.82C114.551 48.946 114.623 49 114.749 49H117.647C117.773 49 117.845 48.946 117.845 48.82C117.845 48.586 117.305 48.424 116.891 47.794L113.795 41.872ZM123.649 39.01C123.649 39.172 123.721 39.262 123.883 39.262C124.063 39.262 125.269 38.398 125.269 38.398C125.395 38.308 125.449 38.182 125.449 37.876V35.842C125.449 35.59 125.287 35.41 124.891 35.41H118.591C118.465 35.41 118.393 35.464 118.393 35.59C118.393 35.824 119.167 36.328 119.167 36.85V47.56C119.167 48.082 118.393 48.586 118.393 48.82C118.393 48.946 118.465 49 118.591 49H124.909C125.287 49 125.449 48.82 125.449 48.496V44.95C125.449 44.788 125.377 44.698 125.215 44.698C125.035 44.698 123.829 45.472 123.829 45.472C123.703 45.562 123.649 45.688 123.649 45.994V47.182C123.649 47.416 123.469 47.56 123.307 47.56H121.237C121.075 47.56 120.967 47.452 120.967 47.272V44.626L123.415 43.15C123.667 42.988 123.793 42.898 123.793 42.682V41.242C123.793 41.116 123.739 41.008 123.631 41.008C123.541 41.008 123.433 41.08 123.253 41.188L120.967 42.574V37.138C120.967 36.94 121.057 36.85 121.219 36.85H123.343C123.505 36.85 123.649 36.994 123.649 37.21V39.01ZM127.976 35.59C127.454 35.59 126.68 35.41 126.446 35.41C126.32 35.41 126.266 35.482 126.266 35.608V37.876C126.266 38.002 126.32 38.074 126.446 38.074C126.572 38.074 126.68 37.912 127.13 37.39C127.418 37.048 127.868 37.012 128.606 37.012C128.786 37.012 128.912 37.156 128.912 37.318V47.56C128.912 48.082 128.138 48.586 128.138 48.82C128.138 48.946 128.21 49 128.336 49H131.288C131.414 49 131.486 48.946 131.486 48.82C131.486 48.586 130.712 48.082 130.712 47.56V37.318C130.712 37.156 130.838 37.012 131.018 37.012C131.756 37.012 132.206 37.048 132.494 37.39C132.944 37.912 133.052 38.074 133.178 38.074C133.304 38.074 133.358 38.002 133.358 37.876V35.608C133.358 35.482 133.304 35.41 133.178 35.41C132.944 35.41 132.17 35.59 131.648 35.59H127.976Z" fill="white"/>
</g>
<defs>
<clipPath id="clip0_331_30">
<rect width="184" height="50" fill="white"/>
</clipPath>
</defs>
</svg>
