<svg width="184" height="50" viewBox="0 0 184 50" fill="none" xmlns="http://www.w3.org/2000/svg">
<g clip-path="url(#clip0_338_111)">
<rect width="3" height="50" fill="white"/>
<rect x="5" width="2" height="50" fill="white"/>
<rect x="16" width="2" height="50" fill="white"/>
<rect x="53" width="5" height="32" fill="white"/>
<rect x="82" width="5" height="32" fill="white"/>
<rect x="92" width="5" height="32" fill="white"/>
<rect x="20" width="1" height="50" fill="white"/>
<rect x="74" width="2" height="32" fill="white"/>
<rect x="101" width="1" height="32" fill="white"/>
<rect x="127" width="2" height="32" fill="white"/>
<rect x="130" width="2" height="32" fill="white"/>
<rect x="136" width="4" height="50" fill="white"/>
<rect x="153" width="2" height="50" fill="white"/>
<rect x="162" width="1" height="50" fill="white"/>
<rect x="165" width="4" height="50" fill="white"/>
<rect x="180" width="1" height="50" fill="white"/>
<rect x="172" width="1" height="50" fill="white"/>
<rect x="78" width="1" height="32" fill="white"/>
<rect x="104" width="2" height="32" fill="white"/>
<rect x="115" width="2" height="32" fill="white"/>
<rect x="143" width="2" height="50" fill="white"/>
<rect x="149" width="3" height="50" fill="white"/>
<rect x="157" width="3" height="50" fill="white"/>
<rect x="175" width="3" height="50" fill="white"/>
<rect x="107" width="4" height="32" fill="white"/>
<rect x="119" width="3" height="32" fill="white"/>
<rect x="30" width="1" height="50" fill="white"/>
<rect x="66" width="2" height="32" fill="white"/>
<rect x="33" width="2" height="50" fill="white"/>
<rect x="46" width="2" height="50" fill="white"/>
<rect x="50" width="1" height="32" fill="white"/>
<rect x="40" width="4" height="50" fill="white"/>
<rect x="25" width="3" height="50" fill="white"/>
<rect x="61" width="3" height="32" fill="white"/>
<rect x="8" width="5" height="50" fill="white"/>
<rect x="37" width="1" height="50" fill="white"/>
<path d="M60.9535 45.184C60.9535 45.184 60.9175 45.292 60.8635 45.292C60.8095 45.292 60.7735 45.184 60.7735 45.184C60.7735 45.184 59.0995 37.984 58.8475 36.922C58.8475 36.886 58.8295 36.868 58.8295 36.832C58.8295 36.4 59.4595 35.734 59.4595 35.59C59.4595 35.464 59.3875 35.41 59.2615 35.41H56.2735C56.1475 35.41 56.0755 35.464 56.0755 35.59C56.0755 35.824 56.7595 36.184 56.9395 36.922L59.6035 47.56C59.6215 47.614 59.6215 47.668 59.6215 47.722C59.6215 48.172 59.1895 48.604 59.1895 48.82C59.1895 48.946 59.2615 49 59.3875 49H62.3395C62.4655 49 62.5375 48.946 62.5375 48.82C62.5375 48.604 62.1055 48.172 62.1055 47.722C62.1055 47.668 62.1055 47.614 62.1235 47.56L64.7875 36.922C64.9675 36.184 65.6515 35.824 65.6515 35.59C65.6515 35.464 65.5795 35.41 65.4535 35.41H62.4475C62.3215 35.41 62.2495 35.464 62.2495 35.59C62.2495 35.734 62.8795 36.4 62.8795 36.832C62.8795 36.868 62.8615 36.886 62.8615 36.922C62.6095 37.984 60.9535 45.184 60.9535 45.184ZM68.8511 36.85C68.8511 36.328 69.6251 35.824 69.6251 35.59C69.6251 35.464 69.5531 35.41 69.4271 35.41H66.4751C66.3491 35.41 66.2771 35.464 66.2771 35.59C66.2771 35.824 67.0511 36.328 67.0511 36.85V47.56C67.0511 48.082 66.2771 48.586 66.2771 48.82C66.2771 48.946 66.3491 49 66.4751 49H69.4271C69.5531 49 69.6251 48.946 69.6251 48.82C69.6251 48.586 68.8511 48.082 68.8511 47.56V36.85ZM70.6391 49H73.5911C73.7171 49 73.7891 48.946 73.7891 48.82C73.7891 48.586 73.0151 48.082 73.0151 47.56V45.67C73.0151 45.472 73.0691 45.31 73.2311 45.202L77.0111 42.664C77.3171 42.43 77.6411 42.088 77.6411 41.674V36.904C77.6411 35.86 77.0651 35.41 75.9851 35.41H70.6391C70.5131 35.41 70.4411 35.464 70.4411 35.59C70.4411 35.824 71.2151 36.328 71.2151 36.85V47.56C71.2151 48.082 70.4411 48.586 70.4411 48.82C70.4411 48.946 70.5131 49 70.6391 49ZM73.3211 36.85H75.2831C75.6971 36.85 75.8411 36.994 75.8411 37.408V41.08C75.8411 41.386 75.6791 41.602 75.2831 41.89L73.4471 43.114C73.3211 43.204 73.2311 43.258 73.1411 43.258C73.0691 43.258 73.0151 43.186 73.0151 43.078V37.21C73.0151 36.994 73.1591 36.85 73.3211 36.85ZM84.3306 35.59C83.8086 35.59 83.0346 35.41 82.8006 35.41C82.6746 35.41 82.6206 35.482 82.6206 35.608V37.876C82.6206 38.002 82.6746 38.074 82.8006 38.074C82.9266 38.074 83.0346 37.912 83.4846 37.39C83.7726 37.048 84.2226 37.012 84.9606 37.012C85.1406 37.012 85.2666 37.156 85.2666 37.318V47.56C85.2666 48.082 84.4926 48.586 84.4926 48.82C84.4926 48.946 84.5646 49 84.6906 49H87.6426C87.7686 49 87.8406 48.946 87.8406 48.82C87.8406 48.586 87.0666 48.082 87.0666 47.56V37.318C87.0666 37.156 87.1926 37.012 87.3726 37.012C88.1106 37.012 88.5606 37.048 88.8486 37.39C89.2986 37.912 89.4066 38.074 89.5326 38.074C89.6586 38.074 89.7126 38.002 89.7126 37.876V35.608C89.7126 35.482 89.6586 35.41 89.5326 35.41C89.2986 35.41 88.5246 35.59 88.0026 35.59H84.3306ZM93.0035 36.85C93.0035 36.328 93.7775 35.824 93.7775 35.59C93.7775 35.464 93.7055 35.41 93.5795 35.41H90.6275C90.5015 35.41 90.4295 35.464 90.4295 35.59C90.4295 35.824 91.2035 36.328 91.2035 36.85V47.56C91.2035 48.082 90.4295 48.586 90.4295 48.82C90.4295 48.946 90.5015 49 90.6275 49H93.5795C93.7055 49 93.7775 48.946 93.7775 48.82C93.7775 48.586 93.0035 48.082 93.0035 47.56V36.85ZM99.7594 39.55C99.7594 39.712 99.8314 39.802 99.9934 39.802C100.173 39.802 101.379 38.938 101.379 38.938C101.505 38.848 101.559 38.722 101.559 38.416V36.652C101.559 36.076 101.019 35.41 100.083 35.41H96.5374C95.6914 35.41 95.1334 35.824 95.1334 36.562V47.848C95.1334 48.586 95.6914 49 96.5374 49H100.083C101.019 49 101.559 48.334 101.559 47.758V44.32C101.559 44.158 101.487 44.068 101.325 44.068C101.145 44.068 99.9394 44.932 99.9394 44.932C99.8134 45.022 99.7594 45.148 99.7594 45.454V47.182C99.7594 47.416 99.5794 47.56 99.4174 47.56H97.3114C97.0414 47.56 96.9334 47.434 96.9334 47.164V37.246C96.9334 36.976 97.0414 36.85 97.3114 36.85H99.4174C99.5794 36.85 99.7594 36.994 99.7594 37.228V39.55ZM107.275 41.872C107.221 41.764 107.185 41.674 107.185 41.584C107.185 41.494 107.293 41.314 107.293 41.314L110.011 36.616C110.389 35.968 110.965 35.824 110.965 35.59C110.965 35.464 110.893 35.41 110.767 35.41H107.869C107.743 35.41 107.671 35.464 107.671 35.59C107.671 35.824 108.067 35.932 108.067 36.238C108.067 36.418 107.977 36.58 107.779 36.922L105.205 41.422C105.187 41.458 105.151 41.494 105.115 41.494C105.061 41.494 105.025 41.458 105.025 41.386V36.85C105.025 36.328 105.799 35.824 105.799 35.59C105.799 35.464 105.727 35.41 105.601 35.41H102.649C102.523 35.41 102.451 35.464 102.451 35.59C102.451 35.824 103.225 36.328 103.225 36.85V47.56C103.225 48.082 102.451 48.586 102.451 48.82C102.451 48.946 102.523 49 102.649 49H105.601C105.727 49 105.799 48.946 105.799 48.82C105.799 48.586 105.025 48.082 105.025 47.56V45.31C105.025 45.094 105.025 45.004 105.151 44.806L105.871 43.654C105.925 43.564 105.943 43.546 105.979 43.546C106.015 43.546 106.033 43.564 106.087 43.654L108.301 47.812C108.391 47.992 108.427 48.118 108.427 48.172C108.427 48.478 108.031 48.586 108.031 48.82C108.031 48.946 108.103 49 108.229 49H111.127C111.253 49 111.325 48.946 111.325 48.82C111.325 48.586 110.785 48.424 110.371 47.794L107.275 41.872ZM117.129 39.01C117.129 39.172 117.201 39.262 117.363 39.262C117.543 39.262 118.749 38.398 118.749 38.398C118.875 38.308 118.929 38.182 118.929 37.876V35.842C118.929 35.59 118.767 35.41 118.371 35.41H112.071C111.945 35.41 111.873 35.464 111.873 35.59C111.873 35.824 112.647 36.328 112.647 36.85V47.56C112.647 48.082 111.873 48.586 111.873 48.82C111.873 48.946 111.945 49 112.071 49H118.389C118.767 49 118.929 48.82 118.929 48.496V44.95C118.929 44.788 118.857 44.698 118.695 44.698C118.515 44.698 117.309 45.472 117.309 45.472C117.183 45.562 117.129 45.688 117.129 45.994V47.182C117.129 47.416 116.949 47.56 116.787 47.56H114.717C114.555 47.56 114.447 47.452 114.447 47.272V44.626L116.895 43.15C117.147 42.988 117.273 42.898 117.273 42.682V41.242C117.273 41.116 117.219 41.008 117.111 41.008C117.021 41.008 116.913 41.08 116.733 41.188L114.447 42.574V37.138C114.447 36.94 114.537 36.85 114.699 36.85H116.823C116.985 36.85 117.129 36.994 117.129 37.21V39.01ZM121.456 35.59C120.934 35.59 120.16 35.41 119.926 35.41C119.8 35.41 119.746 35.482 119.746 35.608V37.876C119.746 38.002 119.8 38.074 119.926 38.074C120.052 38.074 120.16 37.912 120.61 37.39C120.898 37.048 121.348 37.012 122.086 37.012C122.266 37.012 122.392 37.156 122.392 37.318V47.56C122.392 48.082 121.618 48.586 121.618 48.82C121.618 48.946 121.69 49 121.816 49H124.768C124.894 49 124.966 48.946 124.966 48.82C124.966 48.586 124.192 48.082 124.192 47.56V37.318C124.192 37.156 124.318 37.012 124.498 37.012C125.236 37.012 125.686 37.048 125.974 37.39C126.424 37.912 126.532 38.074 126.658 38.074C126.784 38.074 126.838 38.002 126.838 37.876V35.608C126.838 35.482 126.784 35.41 126.658 35.41C126.424 35.41 125.65 35.59 125.128 35.59H121.456Z" fill="white"/>
</g>
<defs>
<clipPath id="clip0_338_111">
<rect width="184" height="50" fill="white"/>
</clipPath>
</defs>
</svg>
