<?xml version="1.0" encoding="utf-8"?>
<!-- Generator: Adobe Illustrator 26.1.0, SVG Export Plug-In . SVG Version: 6.00 Build 0)  -->
<svg version="1.1" id="Ebene_1" xmlns="http://www.w3.org/2000/svg" xmlns:xlink="http://www.w3.org/1999/xlink" x="0px" y="0px"
	 viewBox="0 0 700 700" style="enable-background:new 0 0 700 700;" xml:space="preserve">
<path d="M489.5,283.9l-139.4-145L211.2,283.4l-0.6,0.6c-19,22.4-29.7,52.1-29.7,83.4c0,31.4,10.6,61,29.7,83.4
	c19.6,23,45.4,35.3,73.4,35.3c19,0,37.5-6.2,53.8-17.4v92.4h22.4l0-94.6c16.8,12.9,36.4,19.6,56.6,19.6c28,0,53.8-12.9,73.4-35.3
	C528.7,404.3,528.7,329.8,489.5,283.9L489.5,283.9z M359.6,181.4l45.9,47.6l-45.9,42V181.4z M337.2,269.9l-42-42l42-43.7V269.9z
	 M337.2,301.8v86.2l-99.7-100.2l42.6-43.7L337.2,301.8z M359.6,301.3l61.6-56.6l42.6,43.7l-104.2,99.7L359.6,301.3z M284,463.7
	c-21.3,0-40.9-10.1-56-27.4c-15.7-18.5-24.1-42.6-24.1-68.9c0-23,6.7-44.8,19-62.2L337.8,420v19C322.7,454.7,303.6,463.7,284,463.7
	L284,463.7z M472.7,436.2c-15.1,17.9-35.3,27.4-56,27.4c-21.3,0-40.9-10.1-56-27.4l-0.6-0.6v-16.2l118.7-113.7
	C504.7,343.8,503,400.4,472.7,436.2L472.7,436.2z"/>
</svg>
